<svg xmlns="http://www.w3.org/2000/svg" width="1024" height="1024" viewBox="0 0 1024 1024" role="img" aria-label="Collective app icon">
  <title>Collective app icon</title>
  <rect x="0" y="0" width="1024" height="1024" rx="224" fill="#FFF8EE"/>

  <defs>
    <mask id="appMask" maskUnits="userSpaceOnUse">
      <rect width="1024" height="1024" fill="white"/>
      <path d="M512 848 C452 748 348 682 226 648" fill="none" stroke="black" stroke-width="19" stroke-linecap="round"/>
      <path d="M512 848 C572 748 676 682 798 648" fill="none" stroke="black" stroke-width="19" stroke-linecap="round"/>
      <path d="M512 848 C442 708 346 628 234 612" fill="none" stroke="black" stroke-width="13" stroke-linecap="round"/>
      <path d="M512 848 C582 708 678 628 790 612" fill="none" stroke="black" stroke-width="13" stroke-linecap="round"/>
      <path d="M512 848 L512 724" fill="none" stroke="black" stroke-width="14" stroke-linecap="round"/>
    </mask>
  </defs>
  <g mask="url(#appMask)" fill="#F2A900" stroke="none">
    <path d="M760 218 A360 360 0 1 0 794 780" fill="none" stroke="#F2A900" stroke-width="88" stroke-linecap="butt"/>
    <path d="M194 644 C326 648 438 728 512 858 C392 842 276 778 194 644 Z"/>
    <path d="M830 644 C698 648 586 728 512 858 C632 842 748 778 830 644 Z"/>
    <path d="M230 612 C348 626 440 690 512 824 C416 762 324 732 214 714 Z"/>
    <path d="M794 612 C676 626 584 690 512 824 C608 762 700 732 810 714 Z"/>
    <circle cx="512" cy="310" r="43"/>
    <path d="M466 424 Q466 382 508 382 L516 382 Q558 382 558 424 L558 662 Q558 681 544 696 L512 732 L480 696 Q466 681 466 662 Z"/>
    <circle cx="405" cy="378" r="39"/>
    <path d="M356 492 Q356 450 398 450 L412 450 Q454 450 454 492 L454 662 Q402 630 356 612 Z"/>
    <circle cx="619" cy="378" r="39"/>
    <path d="M570 492 Q570 450 612 450 L626 450 Q668 450 668 492 L668 612 Q622 630 570 662 Z"/>
  </g>

</svg>