<svg xmlns="http://www.w3.org/2000/svg" width="1440" height="2560" viewBox="0 0 1440 2560" role="img" aria-label="Collective splash screen">
  <rect width="1440" height="2560" fill="#FFF8EE"/>
  <g transform="translate(420 770) scale(0.586)">
    
  
  <g mask="url(#bookCutouts)" fill="#F2A900" stroke="none">
    <!-- wide open C underlay -->
    <path d="M762 220 A364 364 0 1 0 792 782" fill="none" stroke="#F2A900" stroke-width="88" stroke-linecap="butt"/>

    <!-- open book base -->
    <path d="M198 638 C322 640 436 724 512 858 C390 842 274 772 198 638 Z"/>
    <path d="M826 638 C702 640 588 724 512 858 C634 842 750 772 826 638 Z"/>
    <path d="M238 604 C350 618 438 680 512 828 C420 762 328 724 228 708 Z"/>
    <path d="M786 604 C674 618 586 680 512 828 C604 762 696 724 796 708 Z"/>

    <!-- three people / contributors -->
    <circle cx="512" cy="308" r="43"/>
    <path d="M465 421 Q465 380 506 380 L518 380 Q559 380 559 421 L559 660 Q559 680 544 696 L512 730 L480 696 Q465 680 465 660 Z"/>

    <circle cx="405" cy="374" r="39"/>
    <path d="M355 490 Q355 447 398 447 L412 447 Q455 447 455 490 L455 660 Q405 628 355 610 Z"/>

    <circle cx="619" cy="374" r="39"/>
    <path d="M569 490 Q569 447 612 447 L626 447 Q669 447 669 490 L669 610 Q619 628 569 660 Z"/>
  </g>

  </g>
  <text x="720" y="1485" text-anchor="middle" font-family="Georgia, serif" font-size="78" fill="#111111">Collective</text>
  <text x="720" y="1560" text-anchor="middle" font-family="Inter, Arial, sans-serif" font-size="30" fill="#6E6E6E">Small steps. Real progress.</text>
</svg>