<svg xmlns="http://www.w3.org/2000/svg" width="320" height="200" viewBox="0 0 320 200" role="img" aria-label="Sample proof">
  <rect width="320" height="200" rx="22" fill="#FFFDF8"/>
  <rect x="1" y="1" width="318" height="198" rx="21" fill="none" stroke="#EFE7D8" stroke-width="2"/>
  <rect width="320" height="200" rx="22" fill="#FFF1C7"/><rect x="20" y="74" width="5" height="52" rx="2.5" fill="#F2A900"/><rect x="30" y="60" width="5" height="80" rx="2.5" fill="#F2A900"/><rect x="40" y="92" width="5" height="16" rx="2.5" fill="#F2A900"/><rect x="50" y="92" width="5" height="16" rx="2.5" fill="#F2A900"/><rect x="60" y="62" width="5" height="76" rx="2.5" fill="#F2A900"/><rect x="70" y="70.5" width="5" height="59" rx="2.5" fill="#F2A900"/><rect x="80" y="68.5" width="5" height="63" rx="2.5" fill="#F2A900"/><rect x="90" y="83" width="5" height="34" rx="2.5" fill="#F2A900"/><rect x="100" y="54" width="5" height="92" rx="2.5" fill="#F2A900"/><rect x="110" y="60.5" width="5" height="79" rx="2.5" fill="#F2A900"/><rect x="120" y="73" width="5" height="54" rx="2.5" fill="#F2A900"/><rect x="130" y="87" width="5" height="26" rx="2.5" fill="#F2A900"/><rect x="140" y="59" width="5" height="82" rx="2.5" fill="#F2A900"/><rect x="150" y="56.5" width="5" height="87" rx="2.5" fill="#F2A900"/><rect x="160" y="86.5" width="5" height="27" rx="2.5" fill="#F2A900"/><rect x="170" y="62" width="5" height="76" rx="2.5" fill="#F2A900"/><rect x="180" y="79.5" width="5" height="41" rx="2.5" fill="#F2A900"/><rect x="190" y="72" width="5" height="56" rx="2.5" fill="#F2A900"/><rect x="200" y="65.5" width="5" height="69" rx="2.5" fill="#F2A900"/><rect x="210" y="65" width="5" height="70" rx="2.5" fill="#F2A900"/><rect x="220" y="85" width="5" height="30" rx="2.5" fill="#F2A900"/><rect x="230" y="85" width="5" height="30" rx="2.5" fill="#F2A900"/><rect x="240" y="51" width="5" height="98" rx="2.5" fill="#F2A900"/><rect x="250" y="91" width="5" height="18" rx="2.5" fill="#F2A900"/><rect x="260" y="72" width="5" height="56" rx="2.5" fill="#F2A900"/><rect x="270" y="80" width="5" height="40" rx="2.5" fill="#F2A900"/><rect x="280" y="81" width="5" height="38" rx="2.5" fill="#F2A900"/><rect x="290" y="58.5" width="5" height="83" rx="2.5" fill="#F2A900"/><text x="20" y="180" font-family="system-ui" font-size="14" font-weight="700" fill="#6E6E6E">Voice note</text>
</svg>