<svg xmlns="http://www.w3.org/2000/svg" width="320" height="200" viewBox="0 0 320 200" role="img" aria-label="Sample proof">
  <rect width="320" height="200" rx="22" fill="#FFFDF8"/>
  <rect x="1" y="1" width="318" height="198" rx="21" fill="none" stroke="#EFE7D8" stroke-width="2"/>
  <rect width="320" height="200" rx="22" fill="#FFF1C7"/><rect x="20" y="90.5" width="5" height="19" rx="2.5" fill="#F2A900"/><rect x="30" y="63.5" width="5" height="73" rx="2.5" fill="#F2A900"/><rect x="40" y="48.5" width="5" height="103" rx="2.5" fill="#F2A900"/><rect x="50" y="89" width="5" height="22" rx="2.5" fill="#F2A900"/><rect x="60" y="56.5" width="5" height="87" rx="2.5" fill="#F2A900"/><rect x="70" y="56.5" width="5" height="87" rx="2.5" fill="#F2A900"/><rect x="80" y="74" width="5" height="52" rx="2.5" fill="#F2A900"/><rect x="90" y="48.5" width="5" height="103" rx="2.5" fill="#F2A900"/><rect x="100" y="92" width="5" height="16" rx="2.5" fill="#F2A900"/><rect x="110" y="66.5" width="5" height="67" rx="2.5" fill="#F2A900"/><rect x="120" y="69" width="5" height="62" rx="2.5" fill="#F2A900"/><rect x="130" y="81.5" width="5" height="37" rx="2.5" fill="#F2A900"/><rect x="140" y="62" width="5" height="76" rx="2.5" fill="#F2A900"/><rect x="150" y="76.5" width="5" height="47" rx="2.5" fill="#F2A900"/><rect x="160" y="78" width="5" height="44" rx="2.5" fill="#F2A900"/><rect x="170" y="48.5" width="5" height="103" rx="2.5" fill="#F2A900"/><rect x="180" y="60.5" width="5" height="79" rx="2.5" fill="#F2A900"/><rect x="190" y="58" width="5" height="84" rx="2.5" fill="#F2A900"/><rect x="200" y="62.5" width="5" height="75" rx="2.5" fill="#F2A900"/><rect x="210" y="86.5" width="5" height="27" rx="2.5" fill="#F2A900"/><rect x="220" y="58" width="5" height="84" rx="2.5" fill="#F2A900"/><rect x="230" y="50.5" width="5" height="99" rx="2.5" fill="#F2A900"/><rect x="240" y="70.5" width="5" height="59" rx="2.5" fill="#F2A900"/><rect x="250" y="72.5" width="5" height="55" rx="2.5" fill="#F2A900"/><rect x="260" y="77.5" width="5" height="45" rx="2.5" fill="#F2A900"/><rect x="270" y="54.5" width="5" height="91" rx="2.5" fill="#F2A900"/><rect x="280" y="66" width="5" height="68" rx="2.5" fill="#F2A900"/><rect x="290" y="51" width="5" height="98" rx="2.5" fill="#F2A900"/><text x="20" y="180" font-family="system-ui" font-size="14" font-weight="700" fill="#6E6E6E">Voice note</text>
</svg>