<svg xmlns="http://www.w3.org/2000/svg" width="320" height="200" viewBox="0 0 320 200" role="img" aria-label="Sample proof">
  <rect width="320" height="200" rx="22" fill="#FFFDF8"/>
  <rect x="1" y="1" width="318" height="198" rx="21" fill="none" stroke="#EFE7D8" stroke-width="2"/>
  <rect width="320" height="200" rx="22" fill="#FFF1C7"/><rect x="20" y="61.5" width="5" height="77" rx="2.5" fill="#F2A900"/><rect x="30" y="81" width="5" height="38" rx="2.5" fill="#F2A900"/><rect x="40" y="87.5" width="5" height="25" rx="2.5" fill="#F2A900"/><rect x="50" y="67.5" width="5" height="65" rx="2.5" fill="#F2A900"/><rect x="60" y="92.5" width="5" height="15" rx="2.5" fill="#F2A900"/><rect x="70" y="55.5" width="5" height="89" rx="2.5" fill="#F2A900"/><rect x="80" y="49.5" width="5" height="101" rx="2.5" fill="#F2A900"/><rect x="90" y="51.5" width="5" height="97" rx="2.5" fill="#F2A900"/><rect x="100" y="64" width="5" height="72" rx="2.5" fill="#F2A900"/><rect x="110" y="73" width="5" height="54" rx="2.5" fill="#F2A900"/><rect x="120" y="55" width="5" height="90" rx="2.5" fill="#F2A900"/><rect x="130" y="85" width="5" height="30" rx="2.5" fill="#F2A900"/><rect x="140" y="58" width="5" height="84" rx="2.5" fill="#F2A900"/><rect x="150" y="49.5" width="5" height="101" rx="2.5" fill="#F2A900"/><rect x="160" y="65.5" width="5" height="69" rx="2.5" fill="#F2A900"/><rect x="170" y="58" width="5" height="84" rx="2.5" fill="#F2A900"/><rect x="180" y="70" width="5" height="60" rx="2.5" fill="#F2A900"/><rect x="190" y="88.5" width="5" height="23" rx="2.5" fill="#F2A900"/><rect x="200" y="56.5" width="5" height="87" rx="2.5" fill="#F2A900"/><rect x="210" y="62" width="5" height="76" rx="2.5" fill="#F2A900"/><rect x="220" y="63.5" width="5" height="73" rx="2.5" fill="#F2A900"/><rect x="230" y="58.5" width="5" height="83" rx="2.5" fill="#F2A900"/><rect x="240" y="67" width="5" height="66" rx="2.5" fill="#F2A900"/><rect x="250" y="84" width="5" height="32" rx="2.5" fill="#F2A900"/><rect x="260" y="54.5" width="5" height="91" rx="2.5" fill="#F2A900"/><rect x="270" y="72" width="5" height="56" rx="2.5" fill="#F2A900"/><rect x="280" y="90" width="5" height="20" rx="2.5" fill="#F2A900"/><rect x="290" y="75" width="5" height="50" rx="2.5" fill="#F2A900"/><text x="20" y="180" font-family="system-ui" font-size="14" font-weight="700" fill="#6E6E6E">Voice note</text>
</svg>