<svg xmlns="http://www.w3.org/2000/svg" width="320" height="200" viewBox="0 0 320 200" role="img" aria-label="Sample proof">
  <rect width="320" height="200" rx="22" fill="#FFFDF8"/>
  <rect x="1" y="1" width="318" height="198" rx="21" fill="none" stroke="#EFE7D8" stroke-width="2"/>
  <rect width="320" height="200" rx="22" fill="#FFF1C7"/><rect x="20" y="65.5" width="5" height="69" rx="2.5" fill="#F2A900"/><rect x="30" y="83.5" width="5" height="33" rx="2.5" fill="#F2A900"/><rect x="40" y="65" width="5" height="70" rx="2.5" fill="#F2A900"/><rect x="50" y="64.5" width="5" height="71" rx="2.5" fill="#F2A900"/><rect x="60" y="57" width="5" height="86" rx="2.5" fill="#F2A900"/><rect x="70" y="89" width="5" height="22" rx="2.5" fill="#F2A900"/><rect x="80" y="72.5" width="5" height="55" rx="2.5" fill="#F2A900"/><rect x="90" y="84" width="5" height="32" rx="2.5" fill="#F2A900"/><rect x="100" y="89" width="5" height="22" rx="2.5" fill="#F2A900"/><rect x="110" y="74" width="5" height="52" rx="2.5" fill="#F2A900"/><rect x="120" y="73.5" width="5" height="53" rx="2.5" fill="#F2A900"/><rect x="130" y="66.5" width="5" height="67" rx="2.5" fill="#F2A900"/><rect x="140" y="76" width="5" height="48" rx="2.5" fill="#F2A900"/><rect x="150" y="75.5" width="5" height="49" rx="2.5" fill="#F2A900"/><rect x="160" y="59" width="5" height="82" rx="2.5" fill="#F2A900"/><rect x="170" y="76" width="5" height="48" rx="2.5" fill="#F2A900"/><rect x="180" y="78" width="5" height="44" rx="2.5" fill="#F2A900"/><rect x="190" y="53" width="5" height="94" rx="2.5" fill="#F2A900"/><rect x="200" y="64" width="5" height="72" rx="2.5" fill="#F2A900"/><rect x="210" y="70.5" width="5" height="59" rx="2.5" fill="#F2A900"/><rect x="220" y="52.5" width="5" height="95" rx="2.5" fill="#F2A900"/><rect x="230" y="65" width="5" height="70" rx="2.5" fill="#F2A900"/><rect x="240" y="67" width="5" height="66" rx="2.5" fill="#F2A900"/><rect x="250" y="79" width="5" height="42" rx="2.5" fill="#F2A900"/><rect x="260" y="87.5" width="5" height="25" rx="2.5" fill="#F2A900"/><rect x="270" y="73.5" width="5" height="53" rx="2.5" fill="#F2A900"/><rect x="280" y="75.5" width="5" height="49" rx="2.5" fill="#F2A900"/><rect x="290" y="67.5" width="5" height="65" rx="2.5" fill="#F2A900"/><text x="20" y="180" font-family="system-ui" font-size="14" font-weight="700" fill="#6E6E6E">Voice note</text>
</svg>