<svg xmlns="http://www.w3.org/2000/svg" width="320" height="200" viewBox="0 0 320 200" role="img" aria-label="Sample proof">
  <rect width="320" height="200" rx="22" fill="#FFFDF8"/>
  <rect x="1" y="1" width="318" height="198" rx="21" fill="none" stroke="#EFE7D8" stroke-width="2"/>
  <rect width="320" height="200" rx="22" fill="#FFF1C7"/><rect x="20" y="66" width="5" height="68" rx="2.5" fill="#F2A900"/><rect x="30" y="69.5" width="5" height="61" rx="2.5" fill="#F2A900"/><rect x="40" y="59" width="5" height="82" rx="2.5" fill="#F2A900"/><rect x="50" y="49" width="5" height="102" rx="2.5" fill="#F2A900"/><rect x="60" y="56" width="5" height="88" rx="2.5" fill="#F2A900"/><rect x="70" y="91" width="5" height="18" rx="2.5" fill="#F2A900"/><rect x="80" y="82.5" width="5" height="35" rx="2.5" fill="#F2A900"/><rect x="90" y="54.5" width="5" height="91" rx="2.5" fill="#F2A900"/><rect x="100" y="70.5" width="5" height="59" rx="2.5" fill="#F2A900"/><rect x="110" y="55.5" width="5" height="89" rx="2.5" fill="#F2A900"/><rect x="120" y="53" width="5" height="94" rx="2.5" fill="#F2A900"/><rect x="130" y="74.5" width="5" height="51" rx="2.5" fill="#F2A900"/><rect x="140" y="52.5" width="5" height="95" rx="2.5" fill="#F2A900"/><rect x="150" y="55.5" width="5" height="89" rx="2.5" fill="#F2A900"/><rect x="160" y="66.5" width="5" height="67" rx="2.5" fill="#F2A900"/><rect x="170" y="63.5" width="5" height="73" rx="2.5" fill="#F2A900"/><rect x="180" y="90" width="5" height="20" rx="2.5" fill="#F2A900"/><rect x="190" y="57" width="5" height="86" rx="2.5" fill="#F2A900"/><rect x="200" y="77.5" width="5" height="45" rx="2.5" fill="#F2A900"/><rect x="210" y="72" width="5" height="56" rx="2.5" fill="#F2A900"/><rect x="220" y="92" width="5" height="16" rx="2.5" fill="#F2A900"/><rect x="230" y="84" width="5" height="32" rx="2.5" fill="#F2A900"/><rect x="240" y="90.5" width="5" height="19" rx="2.5" fill="#F2A900"/><rect x="250" y="57.5" width="5" height="85" rx="2.5" fill="#F2A900"/><rect x="260" y="76" width="5" height="48" rx="2.5" fill="#F2A900"/><rect x="270" y="58" width="5" height="84" rx="2.5" fill="#F2A900"/><rect x="280" y="60.5" width="5" height="79" rx="2.5" fill="#F2A900"/><rect x="290" y="91.5" width="5" height="17" rx="2.5" fill="#F2A900"/><text x="20" y="180" font-family="system-ui" font-size="14" font-weight="700" fill="#6E6E6E">Voice note</text>
</svg>