<svg xmlns="http://www.w3.org/2000/svg" viewBox="0 0 100 100" role="img" aria-label="audio proof"><defs>
    <linearGradient id="bg" x1="0" y1="0" x2="100" y2="100" gradientUnits="userSpaceOnUse">
      <stop offset="0%" stop-color="#FFC23D"/><stop offset="100%" stop-color="#F2A900"/>
    </linearGradient>
    <radialGradient id="gloss" cx="30%" cy="22%" r="70%">
      <stop offset="0%" stop-color="#ffffff" stop-opacity="0.30"/><stop offset="100%" stop-color="#ffffff" stop-opacity="0"/>
    </radialGradient>
  </defs>
  <rect width="100" height="100" fill="url(#bg)"/><rect width="100" height="100" fill="url(#gloss)"/>
        <g stroke="#FFFFFF" stroke-width="3" stroke-linecap="round" opacity="0.9" fill="none">
          <path d="M22 50 q4 -10 8 0 q4 -16 8 0 q4 -22 8 0"/>
          <path d="M70 50 q4 -16 8 0"/></g>
        <rect x="44" y="22" width="12" height="26" rx="6" fill="#000000" opacity="0.10" transform="translate(2 2)"/>
        <rect x="44" y="22" width="12" height="26" rx="6" fill="#FFFDF8"/>
        <path d="M40 44 a10 10 0 0 0 20 0" stroke="#FFFDF8" stroke-width="3" fill="none"/>
        <line x1="50" y1="54" x2="50" y2="64" stroke="#FFFDF8" stroke-width="3"/>
        <line x1="42" y1="66" x2="58" y2="66" stroke="#FFFDF8" stroke-width="3" stroke-linecap="round"/></svg>
