<svg xmlns="http://www.w3.org/2000/svg" width="320" height="200" viewBox="0 0 320 200" role="img" aria-label="Sample proof">
  <rect width="320" height="200" rx="22" fill="#FFFDF8"/>
  <rect x="1" y="1" width="318" height="198" rx="21" fill="none" stroke="#EFE7D8" stroke-width="2"/>
  <rect width="320" height="200" rx="22" fill="#FFF1C7"/><rect x="20" y="53.5" width="5" height="93" rx="2.5" fill="#F2A900"/><rect x="30" y="88" width="5" height="24" rx="2.5" fill="#F2A900"/><rect x="40" y="68" width="5" height="64" rx="2.5" fill="#F2A900"/><rect x="50" y="81" width="5" height="38" rx="2.5" fill="#F2A900"/><rect x="60" y="60.5" width="5" height="79" rx="2.5" fill="#F2A900"/><rect x="70" y="55.5" width="5" height="89" rx="2.5" fill="#F2A900"/><rect x="80" y="75" width="5" height="50" rx="2.5" fill="#F2A900"/><rect x="90" y="60.5" width="5" height="79" rx="2.5" fill="#F2A900"/><rect x="100" y="69" width="5" height="62" rx="2.5" fill="#F2A900"/><rect x="110" y="54" width="5" height="92" rx="2.5" fill="#F2A900"/><rect x="120" y="66.5" width="5" height="67" rx="2.5" fill="#F2A900"/><rect x="130" y="74.5" width="5" height="51" rx="2.5" fill="#F2A900"/><rect x="140" y="86.5" width="5" height="27" rx="2.5" fill="#F2A900"/><rect x="150" y="50" width="5" height="100" rx="2.5" fill="#F2A900"/><rect x="160" y="88" width="5" height="24" rx="2.5" fill="#F2A900"/><rect x="170" y="85" width="5" height="30" rx="2.5" fill="#F2A900"/><rect x="180" y="68" width="5" height="64" rx="2.5" fill="#F2A900"/><rect x="190" y="71.5" width="5" height="57" rx="2.5" fill="#F2A900"/><rect x="200" y="67" width="5" height="66" rx="2.5" fill="#F2A900"/><rect x="210" y="56" width="5" height="88" rx="2.5" fill="#F2A900"/><rect x="220" y="77" width="5" height="46" rx="2.5" fill="#F2A900"/><rect x="230" y="66" width="5" height="68" rx="2.5" fill="#F2A900"/><rect x="240" y="48.5" width="5" height="103" rx="2.5" fill="#F2A900"/><rect x="250" y="56.5" width="5" height="87" rx="2.5" fill="#F2A900"/><rect x="260" y="54" width="5" height="92" rx="2.5" fill="#F2A900"/><rect x="270" y="71" width="5" height="58" rx="2.5" fill="#F2A900"/><rect x="280" y="48.5" width="5" height="103" rx="2.5" fill="#F2A900"/><rect x="290" y="87.5" width="5" height="25" rx="2.5" fill="#F2A900"/><text x="20" y="180" font-family="system-ui" font-size="14" font-weight="700" fill="#6E6E6E">Voice note</text>
</svg>