<svg xmlns="http://www.w3.org/2000/svg" viewBox="0 0 100 100" role="img" aria-label="question proof"><defs>
    <linearGradient id="bg" x1="0" y1="0" x2="100" y2="100" gradientUnits="userSpaceOnUse">
      <stop offset="0%" stop-color="#FFF3D0"/><stop offset="100%" stop-color="#FFDD93"/>
    </linearGradient>
    <radialGradient id="gloss" cx="28%" cy="20%" r="70%">
      <stop offset="0%" stop-color="#ffffff" stop-opacity="0.45"/><stop offset="100%" stop-color="#ffffff" stop-opacity="0"/>
    </radialGradient>
  </defs>
  <rect width="100" height="100" fill="url(#bg)"/><rect width="100" height="100" fill="url(#gloss)"/>
        <path d="M24 30 h44 a6 6 0 0 1 6 6 v22 a6 6 0 0 1 -6 6 h-22 l-12 10 v-10 h-4 a6 6 0 0 1 -6 -6 v-22 a6 6 0 0 1 6 -6 z" fill="#000000" opacity="0.10" transform="translate(2 2)"/>
        <path d="M24 30 h44 a6 6 0 0 1 6 6 v22 a6 6 0 0 1 -6 6 h-22 l-12 10 v-10 h-4 a6 6 0 0 1 -6 -6 v-22 a6 6 0 0 1 6 -6 z" fill="#FFFDF8"/>
        <text x="49" y="50" font-family="Arial,Helvetica,sans-serif" font-size="34" font-weight="800" fill="#F2A900" text-anchor="middle" dominant-baseline="central">?</text></svg>
