<svg xmlns="http://www.w3.org/2000/svg" viewBox="0 0 100 100" role="img" aria-label="video proof"><defs>
    <linearGradient id="bg" x1="0" y1="0" x2="100" y2="100" gradientUnits="userSpaceOnUse">
      <stop offset="0%" stop-color="#FFC23D"/><stop offset="100%" stop-color="#F2A900"/>
    </linearGradient>
    <radialGradient id="gloss" cx="30%" cy="22%" r="70%">
      <stop offset="0%" stop-color="#ffffff" stop-opacity="0.30"/><stop offset="100%" stop-color="#ffffff" stop-opacity="0"/>
    </radialGradient>
  </defs>
  <rect width="100" height="100" fill="url(#bg)"/><rect width="100" height="100" fill="url(#gloss)"/>
        <rect x="22" y="30" width="56" height="40" rx="5" fill="#000000" opacity="0.10" transform="translate(2 2)"/>
        <rect x="22" y="30" width="56" height="40" rx="5" fill="#3A2A12"/>
        <rect x="22" y="30" width="56" height="6" fill="#211705"/><rect x="22" y="64" width="56" height="6" fill="#211705"/>
        <g fill="#F2A900"><rect x="25" y="31.5" width="3" height="3"/><rect x="33" y="31.5" width="3" height="3"/><rect x="41" y="31.5" width="3" height="3"/><rect x="49" y="31.5" width="3" height="3"/><rect x="57" y="31.5" width="3" height="3"/><rect x="65" y="31.5" width="3" height="3"/><rect x="72" y="31.5" width="3" height="3"/>
          <rect x="25" y="65.5" width="3" height="3"/><rect x="33" y="65.5" width="3" height="3"/><rect x="41" y="65.5" width="3" height="3"/><rect x="49" y="65.5" width="3" height="3"/><rect x="57" y="65.5" width="3" height="3"/><rect x="65" y="65.5" width="3" height="3"/><rect x="72" y="65.5" width="3" height="3"/></g>
        <circle cx="50" cy="50" r="11" fill="#FFFDF8" opacity="0.95"/>
        <path d="M47 44 l9 6 l-9 6 z" fill="#F2A900"/></svg>
